<svg width="802" height="121" viewBox="0 0 802 121" fill="none" xmlns="http://www.w3.org/2000/svg">
<path d="M87 0.5C85.8333 3.16667 84.7917 5.5 83.875 7.5C82.9583 9.5 82.1667 11.2083 81.5 12.625C80.75 14.2083 80.125 15.625 79.625 16.875C79.2083 17.7917 78.6667 19.0417 78 20.625C77.3333 22.0417 76.5 23.9167 75.5 26.25C74.5833 28.5 73.375 31.4167 71.875 35C71.125 31.9167 70.2083 29.2083 69.125 26.875C68.0417 24.5417 66.875 22.5 65.625 20.75C64.375 19 63.0417 17.5833 61.625 16.5C60.2917 15.3333 58.9583 14.375 57.625 13.625C54.5417 11.9583 51.2917 11.0417 47.875 10.875C43.375 11.125 39.8333 11.875 37.25 13.125C34.75 14.2917 32.9167 15.6667 31.75 17.25C30.5833 18.75 29.9583 20.3333 29.875 22C29.7917 23.5833 30 24.9167 30.5 26C30.9167 27 32.375 28.1667 34.875 29.5C37.4583 30.8333 40.5417 32.375 44.125 34.125C47.7917 35.7917 51.7083 37.7083 55.875 39.875C60.0417 41.9583 63.875 44.2917 67.375 46.875C70.9583 49.375 73.9583 52.125 76.375 55.125C78.875 58.0417 80.25 61.1667 80.5 64.5C80.75 68.75 80.7083 72.5833 80.375 76C80.0417 79.4167 78.875 82.3333 76.875 84.75C74.875 87.1667 71.75 89.0833 67.5 90.5C63.3333 91.9167 57.5417 92.7917 50.125 93.125C42.4583 93.4583 36.1667 93.0417 31.25 91.875C26.3333 90.7083 22.3333 89.125 19.25 87.125C16.25 85.125 14 82.9167 12.5 80.5C11.0833 78.0833 10.0417 75.7917 9.375 73.625C8.70833 71.375 8.25 69.4583 8 67.875C7.75 66.2083 7.33333 65.2083 6.75 64.875C6.08333 64.4583 5.41667 64.0833 4.75 63.75C4.16667 63.4167 3.54167 63.125 2.875 62.875C2.20833 62.5417 1.54167 62.25 0.875 62L37.25 56.125C35.1667 57.7917 33.5417 59.3333 32.375 60.75C31.2917 62.1667 30.4583 63.4167 29.875 64.5C29.2083 65.75 28.75 66.9167 28.5 68C28.3333 69.1667 28.7083 70.625 29.625 72.375C30.5417 74.125 31.7917 75.8333 33.375 77.5C35.0417 79.0833 36.9583 80.4167 39.125 81.5C41.2917 82.5833 43.5417 83.0417 45.875 82.875C48.7917 82.625 51.1667 81.9167 53 80.75C54.8333 79.5 56.2083 77.9583 57.125 76.125C58.125 74.2917 58.7083 72.2917 58.875 70.125C59.0417 67.9583 58.8333 65.8333 58.25 63.75C57.75 61.5833 56.9167 59.5833 55.75 57.75C54.5833 55.8333 53.2083 54.25 51.625 53C50.2083 52 48 51.0417 45 50.125C42.0833 49.2083 38.7917 48.2083 35.125 47.125C31.5417 46.0417 27.8333 44.7917 24 43.375C20.25 41.9583 16.8333 40.2083 13.75 38.125C10.75 36.0417 8.33333 33.5833 6.5 30.75C4.75 27.9167 4.08333 24.5 4.5 20.5C4.83333 17.0833 5.91667 14.25 7.75 12C9.66667 9.66667 12.0417 7.83333 14.875 6.5C17.7917 5.08333 21 4.04167 24.5 3.375C28.0833 2.70833 31.7083 2.33333 35.375 2.25C39.125 2.08333 42.7917 2.125 46.375 2.375C50.0417 2.625 53.3333 2.91667 56.25 3.25C59.1667 3.58333 61.625 3.91667 63.625 4.25C65.7083 4.5 67 4.66667 67.5 4.75C69.6667 4.91667 71.8333 4.875 74 4.625C75.9167 4.45833 78 4.08333 80.25 3.5C82.5833 2.83333 84.8333 1.83333 87 0.5ZM80.625 34.375C83.125 34.5417 85.3333 34.6667 87.25 34.75C89.25 34.8333 90.9167 34.9167 92.25 35C93.75 35.0833 95.0833 35.125 96.25 35.125C97.4167 35.125 98.75 35.0833 100.25 35C101.583 34.9167 103.208 34.7917 105.125 34.625C107.125 34.375 109.417 34.0417 112 33.625C110 34.875 108.375 36.0417 107.125 37.125C105.958 38.125 105.042 39.0417 104.375 39.875C103.625 40.7917 103.125 41.625 102.875 42.375C102.708 43.0417 102.542 44.375 102.375 46.375C102.292 48.2917 102.208 50.5417 102.125 53.125C102.125 55.625 102.167 58.2917 102.25 61.125C102.333 63.9583 102.458 66.5417 102.625 68.875C102.792 71.125 103.042 73.0417 103.375 74.625C103.708 76.125 104.125 76.8333 104.625 76.75C105.292 76.1667 106.375 74.2083 107.875 70.875C108.458 69.4583 109.167 67.6667 110 65.5C110.833 63.25 111.792 60.5417 112.875 57.375C113.958 54.125 115.167 50.3333 116.5 46C117.917 41.6667 119.5 36.625 121.25 30.875H132.125C132.458 36.5417 132.833 41.5 133.25 45.75C133.667 50 134.083 53.7083 134.5 56.875C134.917 59.9583 135.292 62.5833 135.625 64.75C136.042 66.8333 136.458 68.5417 136.875 69.875C137.792 73.0417 138.708 74.75 139.625 75C140.375 74.8333 141.167 73.875 142 72.125C142.917 70.375 143.75 68.2083 144.5 65.625C145.333 63.0417 146.083 60.25 146.75 57.25C147.417 54.1667 148 51.2917 148.5 48.625C149 45.9583 149.333 43.625 149.5 41.625C149.667 39.625 149.667 38.375 149.5 37.875C149.25 37.375 148.75 36.6667 148 35.75C147.333 35 146.417 34.0833 145.25 33C144.167 31.9167 142.667 30.625 140.75 29.125C143.083 29.5417 145.292 29.8333 147.375 30C149.542 30.0833 151.458 30.1667 153.125 30.25C155.042 30.3333 156.792 30.3333 158.375 30.25C160.042 30.25 162.083 30.2083 164.5 30.125C166.583 30.0417 169.167 30 172.25 30C175.417 30 179.125 29.9167 183.375 29.75C179.625 30.9167 176.625 32.0417 174.375 33.125C172.208 34.125 170.542 35.0833 169.375 36C167.958 37 166.958 37.9583 166.375 38.875C165.792 40.125 164.875 42.75 163.625 46.75C163.125 48.4167 162.5 50.5 161.75 53C161 55.4167 160.125 58.2917 159.125 61.625C158.125 64.9583 157 68.8333 155.75 73.25C154.5 77.5833 153.083 82.5417 151.5 88.125C150.583 87.9583 149.625 87.875 148.625 87.875C147.708 87.7917 146.833 87.75 146 87.75H143.125C142.125 87.8333 141.042 87.9167 139.875 88C138.875 88.0833 137.708 88.2083 136.375 88.375C135.042 88.5417 133.583 88.75 132 89L124.5 58.625L112.25 89L98.25 88.625C96.5 79.2083 95.0833 71.7083 94 66.125C93 60.4583 92.1667 56.125 91.5 53.125C90.75 49.625 90.25 47.1667 90 45.75C89.5833 44.25 88.9583 42.7917 88.125 41.375C87.4583 40.2083 86.5 39 85.25 37.75C84 36.4167 82.4583 35.2917 80.625 34.375ZM203 71.875C205.333 71.875 207.5 71.625 209.5 71.125C211.167 70.7083 212.75 70.0417 214.25 69.125C215.833 68.125 216.875 66.6667 217.375 64.75C219.042 65.0833 220.458 65.375 221.625 65.625C222.792 65.7917 223.792 65.9583 224.625 66.125C225.542 66.375 226.333 66.5417 227 66.625C227.667 66.7917 228.458 66.9583 229.375 67.125C230.208 67.2917 231.208 67.5 232.375 67.75C233.625 67.9167 235.083 68.1667 236.75 68.5C235.5 68.3333 234.208 68.4583 232.875 68.875C231.625 69.2917 230.417 69.75 229.25 70.25C227.917 70.8333 226.667 71.5417 225.5 72.375C224.75 72.875 223.875 73.625 222.875 74.625C221.958 75.625 220.625 76.5833 218.875 77.5C217.125 78.4167 214.792 79.2083 211.875 79.875C209.042 80.4583 205.375 80.6667 200.875 80.5C195.458 80.3333 190.917 79.375 187.25 77.625C183.583 75.7917 180.625 73.5833 178.375 71C176.125 68.3333 174.5 65.4583 173.5 62.375C172.5 59.2917 171.958 56.4167 171.875 53.75C171.792 51.0833 172.583 48.2917 174.25 45.375C175.917 42.4583 178.25 39.7917 181.25 37.375C184.333 34.9583 188.042 33 192.375 31.5C196.708 29.9167 201.458 29.125 206.625 29.125C209.625 29.125 212.375 29.5 214.875 30.25C217.458 30.9167 219.792 31.8333 221.875 33C224.042 34.1667 225.917 35.5 227.5 37C229.083 38.4167 230.417 39.875 231.5 41.375C232.583 42.9583 233.5 44.625 234.25 46.375C234.917 47.875 235.458 49.5833 235.875 51.5C236.292 53.4167 236.417 55.375 236.25 57.375C229.917 57.5417 224.792 57.6667 220.875 57.75C217.042 57.8333 214.042 57.875 211.875 57.875H206.25H202C200.5 57.875 198.542 57.9167 196.125 58C193.708 58.0833 190.75 58.2083 187.25 58.375C187.667 61.7083 188.708 64.2917 190.375 66.125C192.125 67.875 193.958 69.2083 195.875 70.125C198.042 71.125 200.417 71.7083 203 71.875ZM191.75 49.375C194.417 49.5417 196.625 49.6667 198.375 49.75C200.208 49.8333 201.708 49.9167 202.875 50C204.125 50.0833 205.125 50.125 205.875 50.125H209C211.083 50.125 214.958 50 220.625 49.75C220.375 46.0833 219.583 43.2917 218.25 41.375C217 39.4583 215.667 38.0417 214.25 37.125C212.583 36.125 210.75 35.5417 208.75 35.375C203.333 35.4583 199.292 36.5833 196.625 38.75C194.042 40.9167 192.417 44.4583 191.75 49.375ZM273.75 71.875C276.083 71.875 278.25 71.625 280.25 71.125C281.917 70.7083 283.5 70.0417 285 69.125C286.583 68.125 287.625 66.6667 288.125 64.75C289.792 65.0833 291.208 65.375 292.375 65.625C293.542 65.7917 294.542 65.9583 295.375 66.125C296.292 66.375 297.083 66.5417 297.75 66.625C298.417 66.7917 299.208 66.9583 300.125 67.125C300.958 67.2917 301.958 67.5 303.125 67.75C304.375 67.9167 305.833 68.1667 307.5 68.5C306.25 68.3333 304.958 68.4583 303.625 68.875C302.375 69.2917 301.167 69.75 300 70.25C298.667 70.8333 297.417 71.5417 296.25 72.375C295.5 72.875 294.625 73.625 293.625 74.625C292.708 75.625 291.375 76.5833 289.625 77.5C287.875 78.4167 285.542 79.2083 282.625 79.875C279.792 80.4583 276.125 80.6667 271.625 80.5C266.208 80.3333 261.667 79.375 258 77.625C254.333 75.7917 251.375 73.5833 249.125 71C246.875 68.3333 245.25 65.4583 244.25 62.375C243.25 59.2917 242.708 56.4167 242.625 53.75C242.542 51.0833 243.333 48.2917 245 45.375C246.667 42.4583 249 39.7917 252 37.375C255.083 34.9583 258.792 33 263.125 31.5C267.458 29.9167 272.208 29.125 277.375 29.125C280.375 29.125 283.125 29.5 285.625 30.25C288.208 30.9167 290.542 31.8333 292.625 33C294.792 34.1667 296.667 35.5 298.25 37C299.833 38.4167 301.167 39.875 302.25 41.375C303.333 42.9583 304.25 44.625 305 46.375C305.667 47.875 306.208 49.5833 306.625 51.5C307.042 53.4167 307.167 55.375 307 57.375C300.667 57.5417 295.542 57.6667 291.625 57.75C287.792 57.8333 284.792 57.875 282.625 57.875H277H272.75C271.25 57.875 269.292 57.9167 266.875 58C264.458 58.0833 261.5 58.2083 258 58.375C258.417 61.7083 259.458 64.2917 261.125 66.125C262.875 67.875 264.708 69.2083 266.625 70.125C268.792 71.125 271.167 71.7083 273.75 71.875ZM262.5 49.375C265.167 49.5417 267.375 49.6667 269.125 49.75C270.958 49.8333 272.458 49.9167 273.625 50C274.875 50.0833 275.875 50.125 276.625 50.125H279.75C281.833 50.125 285.708 50 291.375 49.75C291.125 46.0833 290.333 43.2917 289 41.375C287.75 39.4583 286.417 38.0417 285 37.125C283.333 36.125 281.5 35.5417 279.5 35.375C274.083 35.4583 270.042 36.5833 267.375 38.75C264.792 40.9167 263.167 44.4583 262.5 49.375ZM310.5 13.25C313 13.5 315.083 13.7083 316.75 13.875C318.5 14.0417 319.917 14.1667 321 14.25C322.25 14.3333 323.25 14.375 324 14.375C324.75 14.4583 325.75 14.4583 327 14.375C328.083 14.2917 329.5 14.2083 331.25 14.125C333 13.9583 335.208 13.7083 337.875 13.375C337.292 14.2083 336.833 14.9583 336.5 15.625C336.167 16.2083 335.875 16.75 335.625 17.25L334.875 18.75C334.708 19.25 334.542 19.75 334.375 20.25C334.208 20.6667 334.042 21.1667 333.875 21.75C333.792 22.3333 333.708 22.9583 333.625 23.625H352.875L351.125 33.75L333.5 32.75C333.083 37 332.792 40.2917 332.625 42.625C332.458 44.9583 332.292 46.6667 332.125 47.75L331.875 50C331.625 53.1667 331.375 56.625 331.125 60.375C330.875 64.0417 330.792 67.4583 330.875 70.625C330.958 73.7917 331.25 76.4583 331.75 78.625C332.25 80.7083 333.125 81.75 334.375 81.75C335.625 81.75 336.792 81.4167 337.875 80.75C338.958 80.0833 339.875 79.2917 340.625 78.375C341.458 77.4583 342.083 76.5417 342.5 75.625C342.917 74.625 343.125 73.875 343.125 73.375C343.125 72.875 343 72.2917 342.75 71.625C342.333 70.375 341.583 68.7917 340.5 66.875C342.917 67.4583 345.042 68.0417 346.875 68.625C347.792 68.9583 348.625 69.2917 349.375 69.625C350.208 69.9583 351.167 70.3333 352.25 70.75C353.167 71.1667 354.333 71.6667 355.75 72.25C357.167 72.8333 358.833 73.5417 360.75 74.375C358.917 74.7083 357.583 75.25 356.75 76C356.25 76.3333 355.875 76.7083 355.625 77.125C355.042 78.0417 354.375 79.2917 353.625 80.875C352.875 82.375 351.75 83.875 350.25 85.375C348.75 86.875 346.708 88.2083 344.125 89.375C341.625 90.5417 338.25 91.2083 334 91.375C329.583 91.5417 326.208 90.7917 323.875 89.125C321.625 87.4583 319.958 85.5417 318.875 83.375C317.875 81.125 317.292 78.9167 317.125 76.75C316.958 74.5833 316.833 73.125 316.75 72.375C316.667 71.625 316.667 69.75 316.75 66.75C316.833 63.75 316.958 60.4583 317.125 56.875C317.292 53.2083 317.458 49.7083 317.625 46.375C317.792 42.9583 317.875 40.4583 317.875 38.875C317.875 38.0417 317.917 37.1667 318 36.25C318 35.5 318 34.7083 318 33.875C318.083 32.9583 318.125 32.0833 318.125 31.25L300 31.125L299.25 24L317.5 24.5C317.333 23.5833 317.125 22.75 316.875 22C316.708 21.1667 316.542 20.5 316.375 20C316.125 19.4167 315.875 18.9167 315.625 18.5C315.292 18.0833 314.917 17.625 314.5 17.125C314.083 16.7083 313.542 16.1667 312.875 15.5C312.208 14.8333 311.417 14.0833 310.5 13.25ZM392.875 2.625C395.542 3.29167 398.083 3.79167 400.5 4.125C402.917 4.45833 405.042 4.70833 406.875 4.875C409.042 5.125 411.042 5.20833 412.875 5.125C415.208 5.125 418.125 4.91667 421.625 4.5C425.208 4.08333 428.875 3.70833 432.625 3.375C436.375 2.95833 439.958 2.70833 443.375 2.625C446.875 2.45833 449.708 2.66667 451.875 3.25C454.042 3.75 456.25 4.54167 458.5 5.625C460.833 6.625 462.958 7.91667 464.875 9.5C466.792 11 468.375 12.7917 469.625 14.875C470.875 16.875 471.583 19.1667 471.75 21.75C471.667 25 470.917 28.0417 469.5 30.875C468.333 33.2917 466.375 35.7917 463.625 38.375C460.875 40.875 456.917 42.7917 451.75 44.125C454.333 44.4583 456.542 45.0417 458.375 45.875C460.292 46.625 461.917 47.5417 463.25 48.625C464.667 49.625 465.792 50.75 466.625 52C467.542 53.25 468.25 54.5 468.75 55.75C470 58.6667 470.583 61.9167 470.5 65.5C470 70.1667 469.042 73.875 467.625 76.625C466.292 79.375 464.75 81.5 463 83C461.25 84.5 459.458 85.5417 457.625 86.125C455.792 86.7083 454.125 87.1667 452.625 87.5C451.125 87.8333 449.292 88 447.125 88C444.958 88 442.625 87.9583 440.125 87.875C437.708 87.7083 435.208 87.5833 432.625 87.5C430.042 87.3333 427.583 87.3333 425.25 87.5C423.333 87.6667 421 87.8333 418.25 88C415.917 88.1667 413 88.375 409.5 88.625C406 88.7917 401.917 89 397.25 89.25C398.167 88.5833 398.917 87.8333 399.5 87C400.167 86.0833 400.708 85.2917 401.125 84.625C401.542 83.7917 401.917 83 402.25 82.25C402.5 81.5833 402.708 79.75 402.875 76.75C403.042 73.75 403.167 70.1667 403.25 66C403.333 61.75 403.375 57.2083 403.375 52.375C403.458 47.4583 403.417 42.75 403.25 38.25C403.167 33.6667 403 29.625 402.75 26.125C402.583 22.5417 402.333 19.9583 402 18.375C401.5 16.625 400.833 14.8333 400 13C399.333 11.4167 398.375 9.70833 397.125 7.875C395.958 6.04167 394.542 4.29167 392.875 2.625ZM419.25 15.375C419.25 15.7083 419.292 16.8333 419.375 18.75C419.458 20.4167 419.542 23 419.625 26.5C419.792 29.9167 420 34.7917 420.25 41.125C422.333 42.0417 424.375 42.5417 426.375 42.625C428.375 42.625 430.167 42.5417 431.75 42.375C433.583 42.125 435.333 41.7083 437 41.125C439.25 40.2083 441 38.7083 442.25 36.625C443.583 34.5417 444.458 32.375 444.875 30.125C445.375 27.7917 445.5 25.625 445.25 23.625C445 21.5417 444.458 20.0417 443.625 19.125C442.042 17.7083 440.083 16.5417 437.75 15.625C435.75 14.875 433.208 14.375 430.125 14.125C427.125 13.7917 423.5 14.2083 419.25 15.375ZM418.625 74.625C421.708 76.2083 424.417 77.25 426.75 77.75C429.083 78.25 431.042 78.5 432.625 78.5C434.458 78.5 436.042 78.25 437.375 77.75C438.958 77 440.5 76 442 74.75C443.583 73.4167 444.75 71.875 445.5 70.125C446.333 68.2917 446.667 66.2917 446.5 64.125C446.333 61.875 445.375 59.4167 443.625 56.75C442.042 54.8333 440.125 53.3333 437.875 52.25C435.875 51.3333 433.333 50.75 430.25 50.5C427.25 50.25 423.542 50.9583 419.125 52.625L418.625 74.625ZM486.875 41.375C487.292 40.875 487.542 39.9583 487.625 38.625C487.792 37.2083 488.125 35.625 488.625 33.875C489.208 32.125 490.167 30.2917 491.5 28.375C492.833 26.4583 495 24.6667 498 23C500.917 21.3333 503.75 20.3333 506.5 20C509.25 19.6667 511.875 19.7917 514.375 20.375C516.875 20.9583 519.208 21.875 521.375 23.125C523.625 24.375 525.667 25.75 527.5 27.25C528.75 28.25 529.75 29.7083 530.5 31.625C531.25 33.4583 531.833 35.5417 532.25 37.875C532.667 40.2083 532.958 42.6667 533.125 45.25C533.375 47.75 533.542 50.2083 533.625 52.625C533.708 54.9583 533.75 57.125 533.75 59.125C533.833 61.0417 534 62.625 534.25 63.875C534.583 65.7083 535.167 67.2917 536 68.625C536.833 69.875 537.75 70.9583 538.75 71.875C539.75 72.7083 540.75 73.375 541.75 73.875C542.75 74.375 543.625 74.75 544.375 75C544.875 75.25 545.333 75.4167 545.75 75.5C546.583 75.8333 547.167 75.8333 547.5 75.5C547 76.6667 546.542 77.6667 546.125 78.5C545.708 79.3333 545.375 80.0417 545.125 80.625C544.792 81.2917 544.5 81.8333 544.25 82.25C544 82.75 543.708 83.2083 543.375 83.625C543.125 84.0417 542.792 84.5 542.375 85C541.958 85.5 541.542 86.0417 541.125 86.625C540.042 86.2083 539 85.7083 538 85.125C537.083 84.5417 536.25 84 535.5 83.5C534.583 82.9167 533.75 82.3333 533 81.75C532.25 81.1667 531.542 80.5 530.875 79.75C530.292 79.0833 529.667 78.375 529 77.625C528.417 76.875 527.917 76.0417 527.5 75.125C527 76.2083 525.792 77.75 523.875 79.75C522.042 81.75 519.625 83.5833 516.625 85.25C513.625 86.8333 510.125 87.9583 506.125 88.625C502.208 89.2917 497.875 88.8333 493.125 87.25C491.042 86.5833 489.083 85.625 487.25 84.375C485.417 83.0417 483.833 81.4583 482.5 79.625C481.25 77.7917 480.333 75.7083 479.75 73.375C479.25 70.9583 479.292 68.2917 479.875 65.375C480.458 62.4583 481.5 60 483 58C484.5 56 486.292 54.375 488.375 53.125C490.458 51.875 492.792 50.9167 495.375 50.25C497.958 49.5833 500.625 49.125 503.375 48.875C505.542 48.7917 507.708 48.9167 509.875 49.25C511.708 49.5833 513.625 50.2083 515.625 51.125C517.625 51.9583 519.333 53.25 520.75 55C520.667 50.5833 520.5 47.0833 520.25 44.5C520.083 41.8333 519.917 39.7917 519.75 38.375C519.417 36.7083 519.125 35.5417 518.875 34.875C518.458 34.2917 518 33.625 517.5 32.875C517.083 32.125 516.542 31.4583 515.875 30.875C515.208 30.2083 514.375 29.6667 513.375 29.25C512.375 28.8333 511.208 28.6667 509.875 28.75C508.458 28.8333 507.333 29.2083 506.5 29.875C505.667 30.5417 505 31.3333 504.5 32.25C504.083 33.0833 503.833 34 503.75 35C503.667 36 503.708 36.875 503.875 37.625C504.042 38.125 504.292 38.6667 504.625 39.25C504.958 39.75 505.417 40.2917 506 40.875C506.583 41.4583 507.375 41.9583 508.375 42.375C506.458 42.625 504.75 42.8333 503.25 43C501.75 43.0833 500.458 43.2083 499.375 43.375C498.125 43.5417 497.042 43.6667 496.125 43.75C495.208 43.8333 494.125 44 492.875 44.25C491.792 44.4167 490.458 44.625 488.875 44.875C487.292 45.125 485.458 45.4583 483.375 45.875C483.875 45.2917 484.333 44.75 484.75 44.25C485.167 43.6667 485.542 43.1667 485.875 42.75C486.208 42.25 486.542 41.7917 486.875 41.375ZM505.625 56.25C504.125 56.3333 502.625 56.7083 501.125 57.375C499.625 57.9583 498.292 58.8333 497.125 60C495.958 61.0833 494.958 62.375 494.125 63.875C493.375 65.2917 493 66.875 493 68.625C493 70.375 493.417 71.9167 494.25 73.25C495.167 74.5 496.333 75.5417 497.75 76.375C499.25 77.2083 500.833 77.7083 502.5 77.875C504.25 78.0417 505.958 77.875 507.625 77.375C509.208 76.7917 510.708 75.875 512.125 74.625C513.542 73.2917 514.75 71.875 515.75 70.375C516.75 68.7917 517.458 67.25 517.875 65.75C518.292 64.1667 518.333 62.875 518 61.875C517.333 59.7083 515.833 58.2083 513.5 57.375C511.167 56.4583 508.542 56.0833 505.625 56.25ZM545 1.875C545.917 2.29167 547 2.58333 548.25 2.75C549.583 2.91667 550.833 3 552 3C553.417 3 554.875 2.95833 556.375 2.875C557.875 2.79167 559.708 2.625 561.875 2.375C563.625 2.20833 565.792 2 568.375 1.75C570.958 1.5 573.833 1.16667 577 0.75C575.833 1.33333 574.833 1.95833 574 2.625C573.167 3.29167 572.458 3.95833 571.875 4.625C571.208 5.375 570.667 6.125 570.25 6.875C569.667 7.875 568.875 9.625 567.875 12.125C566.958 14.5417 566 17.25 565 20.25C564.083 23.25 563.25 26.2917 562.5 29.375C561.833 32.4583 561.458 35.0833 561.375 37.25C561.292 39.0833 561.208 41.1667 561.125 43.5C561.042 45.5 560.958 47.9583 560.875 50.875C560.792 53.7917 560.708 57.125 560.625 60.875C566.625 56.5417 571.25 53.0833 574.5 50.5C577.75 47.8333 580.125 45.7917 581.625 44.375C583.375 42.7917 584.417 41.6667 584.75 41C584.667 40.5 584.458 39.9583 584.125 39.375C583.708 38.875 583.125 38.2917 582.375 37.625C581.625 36.9583 580.5 36.2083 579 35.375C581.167 35.625 583.042 35.7917 584.625 35.875C586.292 35.9583 587.708 36.0417 588.875 36.125C590.208 36.2083 591.375 36.2083 592.375 36.125C593.458 36.125 594.792 36.0833 596.375 36C599.125 35.9167 603.375 35.7917 609.125 35.625C603.542 38.5417 599.125 41.0417 595.875 43.125C594.042 44.2917 592.417 45.375 591 46.375C589.583 47.4583 588.125 48.5833 586.625 49.75C585.292 50.75 583.75 51.9167 582 53.25C580.333 54.5833 578.667 56 577 57.5C579.917 62.25 582.458 66.1667 584.625 69.25C586.875 72.3333 588.75 74.8333 590.25 76.75C592 79 593.542 80.7917 594.875 82.125C596.208 83.375 597.958 84.7917 600.125 86.375C601.958 87.7917 604.333 89.4583 607.25 91.375C610.25 93.2083 613.875 95.3333 618.125 97.75C615.958 97.3333 613.875 97.0417 611.875 96.875C609.875 96.7917 608.167 96.7917 606.75 96.875C605 96.9583 603.417 97.125 602 97.375C600.5 97.7083 598.833 98.125 597 98.625C595.417 99.0417 593.542 99.5833 591.375 100.25C589.292 101 587 101.958 584.5 103.125C586.083 101.958 587.25 100.833 588 99.75C588.833 98.75 589.417 97.9167 589.75 97.25C590.083 96.4167 590.208 95.7083 590.125 95.125C589.708 94.2917 588.75 92.5833 587.25 90C585.833 87.8333 583.75 84.6667 581 80.5C578.25 76.3333 574.333 70.6667 569.25 63.5C569 63.5833 568.583 63.8333 568 64.25C567.5 64.6667 566.75 65.25 565.75 66C564.75 66.6667 563.417 67.6667 561.75 69L565.125 90.875C564.375 91.2083 563.542 91.5 562.625 91.75C561.792 92 561 92.2083 560.25 92.375C559.333 92.625 558.417 92.7917 557.5 92.875C556.583 92.9583 555.5 93.125 554.25 93.375C553.167 93.5417 551.875 93.75 550.375 94C548.875 94.3333 547.167 94.7083 545.25 95.125C546.333 94.375 547.208 93.5 547.875 92.5C548.542 91.5833 549.083 90.7083 549.5 89.875C549.917 88.9583 550.292 88 550.625 87C550.792 86.1667 550.958 84 551.125 80.5C551.375 77 551.583 72.8333 551.75 68C551.917 63.0833 552.042 57.8333 552.125 52.25C552.292 46.6667 552.375 41.4167 552.375 36.5C552.375 31.5 552.333 27.1667 552.25 23.5C552.167 19.75 552 17.3333 551.75 16.25C551.333 14.9167 550.833 13.5 550.25 12C549.75 10.6667 549.042 9.16667 548.125 7.5C547.292 5.75 546.25 3.875 545 1.875ZM637.125 71.875C639.458 71.875 641.625 71.625 643.625 71.125C645.292 70.7083 646.875 70.0417 648.375 69.125C649.958 68.125 651 66.6667 651.5 64.75C653.167 65.0833 654.583 65.375 655.75 65.625C656.917 65.7917 657.917 65.9583 658.75 66.125C659.667 66.375 660.458 66.5417 661.125 66.625C661.792 66.7917 662.583 66.9583 663.5 67.125C664.333 67.2917 665.333 67.5 666.5 67.75C667.75 67.9167 669.208 68.1667 670.875 68.5C669.625 68.3333 668.333 68.4583 667 68.875C665.75 69.2917 664.542 69.75 663.375 70.25C662.042 70.8333 660.792 71.5417 659.625 72.375C658.875 72.875 658 73.625 657 74.625C656.083 75.625 654.75 76.5833 653 77.5C651.25 78.4167 648.917 79.2083 646 79.875C643.167 80.4583 639.5 80.6667 635 80.5C629.583 80.3333 625.042 79.375 621.375 77.625C617.708 75.7917 614.75 73.5833 612.5 71C610.25 68.3333 608.625 65.4583 607.625 62.375C606.625 59.2917 606.083 56.4167 606 53.75C605.917 51.0833 606.708 48.2917 608.375 45.375C610.042 42.4583 612.375 39.7917 615.375 37.375C618.458 34.9583 622.167 33 626.5 31.5C630.833 29.9167 635.583 29.125 640.75 29.125C643.75 29.125 646.5 29.5 649 30.25C651.583 30.9167 653.917 31.8333 656 33C658.167 34.1667 660.042 35.5 661.625 37C663.208 38.4167 664.542 39.875 665.625 41.375C666.708 42.9583 667.625 44.625 668.375 46.375C669.042 47.875 669.583 49.5833 670 51.5C670.417 53.4167 670.542 55.375 670.375 57.375C664.042 57.5417 658.917 57.6667 655 57.75C651.167 57.8333 648.167 57.875 646 57.875H640.375H636.125C634.625 57.875 632.667 57.9167 630.25 58C627.833 58.0833 624.875 58.2083 621.375 58.375C621.792 61.7083 622.833 64.2917 624.5 66.125C626.25 67.875 628.083 69.2083 630 70.125C632.167 71.125 634.542 71.7083 637.125 71.875ZM625.875 49.375C628.542 49.5417 630.75 49.6667 632.5 49.75C634.333 49.8333 635.833 49.9167 637 50C638.25 50.0833 639.25 50.125 640 50.125H643.125C645.208 50.125 649.083 50 654.75 49.75C654.5 46.0833 653.708 43.2917 652.375 41.375C651.125 39.4583 649.792 38.0417 648.375 37.125C646.708 36.125 644.875 35.5417 642.875 35.375C637.458 35.4583 633.417 36.5833 630.75 38.75C628.167 40.9167 626.542 44.4583 625.875 49.375ZM674.125 32.125C675.708 32.2083 677.125 32.25 678.375 32.25C679.708 32.1667 680.833 32.0833 681.75 32C682.833 31.9167 683.792 31.8333 684.625 31.75C685.875 31.5833 687.167 31.375 688.5 31.125C689.667 30.9583 690.875 30.75 692.125 30.5C693.458 30.1667 694.75 29.7917 696 29.375C695.5 30.625 695.083 31.7083 694.75 32.625C694.417 33.5417 694.167 34.3333 694 35C693.75 35.75 693.625 36.375 693.625 36.875C693.542 37.4583 693.5 38.1667 693.5 39C693.417 40.4167 693.417 42.7083 693.5 45.875C697.833 42.125 701.458 39.2083 704.375 37.125C707.375 35.0417 709.75 33.4167 711.5 32.25C713.583 30.9167 715.208 30.0417 716.375 29.625C719.458 29.125 722.167 29.8333 724.5 31.75C725.5 32.5833 726.458 33.7083 727.375 35.125C728.292 36.4583 729.083 38.25 729.75 40.5C730.417 42.75 730.917 45.4583 731.25 48.625C731.583 51.7083 731.625 55.4167 731.375 59.75C729.625 59.9167 728.042 60.0833 726.625 60.25C725.292 60.4167 724.167 60.5417 723.25 60.625C722.167 60.7917 721.167 60.875 720.25 60.875L716.875 61.25C715.708 61.4167 714.25 61.5833 712.5 61.75C710.833 61.8333 708.792 62 706.375 62.25C709.875 59.4167 712.125 56.9583 713.125 54.875C714.208 52.7083 714.667 50.9167 714.5 49.5C714.333 47.9167 713.583 46.5417 712.25 45.375C710.667 44.4583 708.958 44.125 707.125 44.375C705.542 44.5417 703.708 45.25 701.625 46.5C699.542 47.75 697.333 50.0833 695 53.5C695.167 58.8333 695.333 63.25 695.5 66.75C695.75 70.25 695.958 73.0833 696.125 75.25C696.375 77.75 696.583 79.7083 696.75 81.125C697 82.375 697.5 83.7083 698.25 85.125C698.833 86.2917 699.667 87.5833 700.75 89C701.833 90.4167 703.25 91.8333 705 93.25C701.333 93.0833 698.333 93.0833 696 93.25C694.583 93.3333 693.333 93.4167 692.25 93.5C691.083 93.6667 689.833 93.8333 688.5 94C687.333 94.1667 685.958 94.3333 684.375 94.5C682.875 94.75 681.208 95 679.375 95.25C680.042 94.3333 680.583 93.25 681 92C681.417 90.8333 681.75 89.7083 682 88.625C682.333 87.375 682.583 86.0833 682.75 84.75C682.833 83.5833 682.875 81.8333 682.875 79.5C682.958 77.1667 682.917 74.5417 682.75 71.625C682.667 68.625 682.542 65.5417 682.375 62.375C682.208 59.125 682 56.0833 681.75 53.25C681.5 50.4167 681.208 47.9583 680.875 45.875C680.625 43.7083 680.333 42.2083 680 41.375C679.583 40.375 679.083 39.375 678.5 38.375C678 37.4583 677.375 36.5 676.625 35.5C675.875 34.4167 675.042 33.2917 674.125 32.125ZM730.25 28.125C731.917 28.375 733.417 28.5833 734.75 28.75C736 28.8333 737.125 28.9167 738.125 29C739.208 29.0833 740.25 29.125 741.25 29.125C742.167 29.125 743.333 29.0833 744.75 29C745.917 28.9167 747.417 28.8333 749.25 28.75C751.167 28.5833 753.417 28.375 756 28.125C755.833 28.4583 755.5 29.5 755 31.25C754.5 32.9167 754 35 753.5 37.5C753 39.9167 752.542 42.625 752.125 45.625C751.792 48.5417 751.625 51.4583 751.625 54.375C751.708 57.2083 752.083 59.9167 752.75 62.5C753.417 65 754.5 67.0417 756 68.625C759.167 71.875 761.958 73.8333 764.375 74.5C766.875 75.1667 769.042 75.0833 770.875 74.25C772.708 73.4167 774.208 72.1667 775.375 70.5C776.542 68.8333 777.375 67.2917 777.875 65.875C779.125 62.0417 779.875 58 780.125 53.75C780.292 50.0833 780 46 779.25 41.5C778.5 37 776.708 32.4167 773.875 27.75C776.042 27.9167 777.917 28.0417 779.5 28.125C781.083 28.2083 782.458 28.2917 783.625 28.375C784.958 28.4583 786.125 28.5417 787.125 28.625C788.042 28.7083 789.125 28.7083 790.375 28.625C791.458 28.625 792.75 28.5833 794.25 28.5C795.833 28.3333 797.583 28.1667 799.5 28C799.833 36.1667 800.125 43.4583 800.375 49.875C800.625 56.2083 800.792 61.8333 800.875 66.75C801.042 71.5833 801.125 75.7917 801.125 79.375C801.125 82.875 801.125 85.8333 801.125 88.25C801.042 94 800.792 97.7917 800.375 99.625C799.708 102.208 798.5 104.792 796.75 107.375C795.083 109.958 792.958 112.25 790.375 114.25C787.792 116.333 784.792 117.917 781.375 119C778.042 120.167 774.375 120.583 770.375 120.25C766.458 119.917 763.333 119.375 761 118.625C758.75 117.958 756.958 117.167 755.625 116.25C754.375 115.333 753.458 114.375 752.875 113.375C752.375 112.375 752 111.333 751.75 110.25C751.5 109.25 751.25 108.292 751 107.375C750.75 106.458 750.25 105.667 749.5 105C748.583 104.25 747.625 103.5 746.625 102.75C745.708 102.083 744.708 101.417 743.625 100.75C742.625 100.083 741.625 99.5417 740.625 99.125L767.25 97.625C766.5 98.625 765.958 99.5417 765.625 100.375C765.292 101.208 765.083 101.917 765 102.5C764.917 103.25 764.958 103.875 765.125 104.375C765.458 105.375 766.042 106.458 766.875 107.625C767.792 108.875 768.958 109.833 770.375 110.5C771.792 111.25 773.458 111.5 775.375 111.25C777.375 111 779.625 109.958 782.125 108.125C784.208 106.542 785.958 104 787.375 100.5C788.542 97.5 789.458 93.2917 790.125 87.875C790.792 82.4583 790.667 75.3333 789.75 66.5C788.25 71.6667 786.208 75.625 783.625 78.375C781.042 81.125 778.458 83.125 775.875 84.375C772.875 85.875 769.75 86.6667 766.5 86.75C762.167 86.5833 758.458 86.0417 755.375 85.125C752.292 84.125 749.75 82.7917 747.75 81.125C745.75 79.4583 744.167 77.5 743 75.25C741.917 72.9167 741.125 70.3333 740.625 67.5C740.125 64.6667 739.875 61.8333 739.875 59C739.875 56.0833 739.875 53.375 739.875 50.875C739.958 48.375 740 46.125 740 44.125C740 42.0417 739.792 40.375 739.375 39.125C738.875 37.875 738.208 36.625 737.375 35.375C736.708 34.2917 735.792 33.125 734.625 31.875C733.375 30.5417 731.917 29.2917 730.25 28.125Z" fill="white"/>
</svg>
